<?xml version="1.0" encoding="utf-8"?>
<!-- Generator: Adobe Illustrator 16.0.0, SVG Export Plug-In . SVG Version: 6.00 Build 0)  -->
<!DOCTYPE svg PUBLIC "-//W3C//DTD SVG 1.1//EN" "http://www.w3.org/Graphics/SVG/1.1/DTD/svg11.dtd">
<svg version="1.1" id="Layer_1" xmlns="http://www.w3.org/2000/svg" xmlns:xlink="http://www.w3.org/1999/xlink" x="0px" y="0px"
	 width="89px" height="89px" viewBox="0 0 89 89" enable-background="new 0 0 89 89" xml:space="preserve">
<g id="Layer_2_1_">
</g>
<g id="Layer_1_2_">
	<g id="Layer_2" display="none">
		<rect x="1.25" display="inline" width="88.375" height="90.25"/>
	</g>
	<g id="Layer_1_1_">
		<g id="XMLID_3_">
			<g>
				<path fill="#11232E" d="M30.582,67.836V47.189l12.992-6.319v30.792c-4.734-0.211-9.161-1.581-12.992-3.822V67.836z"/>
				<path fill="#11232E" d="M43.743,2.943v13.886c-0.055,0-0.114,0-0.169,0.005c-14.995,0.513-26.993,12.593-26.993,27.419
					c0,14.445,11.384,26.282,25.833,27.364v0.037v13.949L42.4,85.833C20.188,84.573,2.576,66.518,2.576,44.418
					C2.576,21.879,20.898,3.539,43.743,2.943z"/>
				<path fill="#FFFFFF" d="M43.574,85.884c-0.394-0.01-0.784-0.026-1.173-0.051l0.014-0.229V71.654v-0.037
					c0.385,0.027,0.77,0.046,1.159,0.06V85.884z"/>
				<path fill="#11232E" d="M16.902,44.253c0,10.026,5.485,18.799,13.68,23.588c3.831,2.241,8.258,3.611,12.992,3.822v0.014
					c-0.39-0.014-0.774-0.032-1.159-0.06c-14.45-1.082-25.833-12.919-25.833-27.364c0-14.826,11.998-26.906,26.993-27.419v0.014
					C28.726,17.521,16.902,29.533,16.902,44.253z"/>
				<path fill="#FFFFFF" d="M47.208,16.98c14.454,1.077,25.843,12.915,25.843,27.359c0,14.83-12.003,26.911-27.002,27.419v-0.014
					c14.844-0.669,26.672-12.682,26.672-27.405c0-10.032-5.484-18.799-13.68-23.583c-3.831-2.246-8.259-3.611-12.992-3.822V16.92
					C46.438,16.935,46.823,16.953,47.208,16.98z"/>
				<path fill="#FFFFFF" d="M46.049,16.921V2.709c0.395,0.009,0.788,0.027,1.178,0.05l-0.014,0.229v13.95l-0.005,0.042
					C46.823,16.953,46.438,16.935,46.049,16.921z"/>
				<path fill="#FFFFFF" d="M73.051,44.34c0-14.445-11.389-26.282-25.843-27.359l0.005-0.042V2.989l0.014-0.229
					c22.213,1.26,39.82,19.321,39.82,41.416c0,22.483-18.23,40.787-40.998,41.465v-0.037V71.759
					C61.048,71.251,73.051,59.17,73.051,44.34z"/>
				<path fill="#FFFFFF" d="M46.049,16.935c4.733,0.211,9.161,1.577,12.992,3.822v20.65l-12.992,6.319V16.935z"/>
				<path fill="#FFFFFF" d="M45.824,85.648c0.021,0,0.041,0,0.06,0v0.006c-0.019,0-0.036,0-0.06,0V85.648z"/>
				<path fill="#FFFFFF" d="M87.372,44.175c0,22.644-18.492,41.048-41.488,41.479v-0.006c0.056-0.004,0.109-0.004,0.165-0.008
					c22.768-0.681,40.998-18.982,40.998-41.467c0-22.094-17.607-40.155-39.82-41.416c-0.39-0.023-0.783-0.041-1.178-0.05V2.7
					C68.968,3.213,87.372,21.586,87.372,44.175z"/>
				<path fill="#11232E" d="M43.574,85.893C20.66,85.375,2.25,67.012,2.25,44.418c0-22.644,18.501-41.049,41.493-41.479v0.005
					C20.898,3.539,2.576,21.879,2.576,44.418c0,22.1,17.612,40.155,39.825,41.415c0.39,0.022,0.779,0.041,1.173,0.051V85.893z"/>
			</g>
		</g>
		<polygon fill="#FFFFFF" points="46.049,2.709 59.053,5.248 59.053,32.331 46.049,32.331 		"/>
		<polygon fill="#11232E" points="30.582,54.271 43.574,54.271 43.574,85.884 30.582,82.167 		"/>
	</g>
	<g id="Layer_3">
	</g>
</g>
</svg>
